<?xml version="1.0" encoding="UTF-8"?><svg id="Layer_2" xmlns="http://www.w3.org/2000/svg" viewBox="0 0 375.9 91"><defs><style>.cls-1{fill:#f037a1;}.cls-2{fill:#ff7814;}.cls-3{fill:#8c2daa;}.cls-4{fill:#12b5cb;}.cls-5{fill:#494949;}</style></defs><g id="Layer_1__1:1_"><g><path class="cls-5" d="M124.62,31.86h-7.85v-7.32h7.85v7.32Zm0,33.97h-7.85v-30.64h7.85v30.64Z"/><path class="cls-5" d="M144.19,65.77c-8.98,.95-13.74-4.46-13.74-12.85v-10.77h-3.69v-6.96h3.69v-7.79h7.85v7.79h5.53v6.96h-5.53v10.83c0,4.28,1.96,5.89,5.89,5.65v7.14Z"/><path class="cls-5" d="M153.41,32.58c0,5-3.03,7.79-7.26,8.21v-3.33c2.32-.48,3.45-2.26,3.45-4.76v-.65h-4.22v-7.5h8.03v8.03Z"/><path class="cls-5" d="M165.49,66.55c-7.79,0-13.56-4.11-14.52-10.71h7.97c1.07,2.62,4.22,3.57,6.54,3.57,3.15,0,5.53-.95,5.53-2.74s-1.07-2.44-6.42-3.27c-5.47-.83-12.79-2.32-12.79-9.16,0-4.82,4.22-9.82,13.09-9.82,7.02,0,12.26,3.81,13.27,9.58h-8.15c-.48-1.43-2.2-2.56-5.12-2.56-3.63,0-5.12,1.31-5.12,2.44,0,1.61,2.26,2.14,6.07,2.74,7.62,1.25,13.09,2.92,13.09,9.58,0,6.07-5.59,10.35-13.45,10.35"/><path class="cls-5" d="M195.24,53.58c1.01,3.75,3.99,6.07,7.67,6.07,2.62,0,5.18-1.13,6.48-3.57h8.39c-1.78,6.25-7.2,10.47-14.81,10.47-8.63,0-15.71-7.14-15.71-16s7.08-16.12,15.71-16.12,16.54,7.02,15.41,19.16h-23.14Zm15.35-6.42c-.95-3.57-3.93-5.83-7.67-5.83s-6.42,2.26-7.55,5.83h15.23Z"/><rect class="cls-5" x="221.12" y="24.55" width="7.85" height="41.29"/><path class="cls-5" d="M239.5,53.58c1.01,3.75,3.99,6.07,7.67,6.07,2.62,0,5.18-1.13,6.48-3.57h8.39c-1.78,6.25-7.2,10.47-14.81,10.47-8.63,0-15.71-7.14-15.71-16s7.08-16.12,15.71-16.12,16.54,7.02,15.41,19.16h-23.14Zm15.35-6.42c-.95-3.57-3.93-5.83-7.67-5.83s-6.42,2.26-7.55,5.83h15.23Z"/><path class="cls-5" d="M280.49,66.55c-9.22,0-15.82-7.14-15.82-16s6.6-16.12,15.82-16.12c7.38,0,12.97,4.17,14.75,11.07h-8.39c-1.07-2.08-3.51-3.87-6.36-3.87-4.34,0-7.85,4.04-7.85,8.98s3.51,8.8,7.85,8.8c2.91,0,5.41-1.78,6.42-3.93h8.39c-1.78,6.96-7.38,11.07-14.81,11.07"/><path class="cls-5" d="M313.26,65.77c-8.98,.95-13.74-4.46-13.74-12.85v-10.77h-3.69v-6.96h3.69v-7.79h7.85v7.79h5.53v6.96h-5.53v10.83c0,4.28,1.96,5.89,5.89,5.65v7.14Z"/><path class="cls-5" d="M332.89,42.21c-3.15-.36-5.77,0-7.55,1.9-1.67,1.73-1.96,4.22-1.96,6.66v15.05h-7.85v-30.64h7.5v3.03c2.5-3.09,6.19-4.22,9.88-3.63v7.61Z"/><path class="cls-5" d="M343.07,31.86h-7.85v-7.32h7.85v7.32Zm0,33.97h-7.85v-30.64h7.85v30.64Z"/><path class="cls-5" d="M361.09,66.55c-9.22,0-15.82-7.14-15.82-16s6.6-16.12,15.82-16.12c7.38,0,12.97,4.17,14.75,11.07h-8.39c-1.07-2.08-3.51-3.87-6.36-3.87-4.34,0-7.85,4.04-7.85,8.98s3.51,8.8,7.85,8.8c2.91,0,5.41-1.78,6.42-3.93h8.39c-1.78,6.96-7.38,11.07-14.81,11.07"/><path class="cls-4" d="M45.5,91v-2.51c-20.15,0-37.1-13.94-41.73-32.68H1.18c4.68,20.14,22.78,35.19,44.32,35.19"/><path class="cls-4" d="M45.5,84.97v-2.51c-16.8,0-31.01-11.27-35.48-26.65h-2.61c4.54,16.78,19.9,29.16,38.09,29.16"/><path class="cls-4" d="M45.5,78.93v-2.51c-13.44,0-24.89-8.62-29.15-20.61h-2.65c4.36,13.41,16.96,23.13,31.8,23.13"/><path class="cls-4" d="M26.13,64.88c5.17,5.17,12.06,8.02,19.38,8.02v-2.51c-6.65,0-12.9-2.59-17.6-7.29-2.14-2.14-3.84-4.61-5.06-7.29h-2.74c1.36,3.35,3.39,6.43,6.02,9.07"/><path class="cls-2" d="M45.5,2.51c20.15,0,37.1,13.94,41.73,32.68h2.59C85.14,15.05,67.05,0,45.5,0S5.86,15.05,1.18,35.19H3.77C8.4,16.45,25.35,2.51,45.5,2.51"/><path class="cls-2" d="M88.49,45.5v1.76h2.51v-1.76c0-.59-.02-1.18-.04-1.76h-2.52c.02,.59,.05,1.17,.05,1.76"/><path class="cls-2" d="M3.23,37.71H.67c-.2,1.16-.36,2.33-.47,3.52H2.73c.12-1.19,.29-2.36,.51-3.52"/><path class="cls-2" d="M87.77,37.71c.21,1.16,.39,2.33,.51,3.52h2.53c-.11-1.19-.27-2.36-.47-3.52h-2.57Z"/><rect class="cls-2" x="88.49" y="49.77" width="2.51" height="3.52"/><path class="cls-2" d="M2.51,45.5c0-.59,.02-1.17,.05-1.76H.04c-.02,.58-.04,1.17-.04,1.76s.02,1.18,.04,1.76H2.56c-.02-.59-.05-1.17-.05-1.76"/><path class="cls-2" d="M2.73,49.77H.2c.11,1.19,.27,2.36,.47,3.52H3.23c-.21-1.16-.39-2.33-.51-3.52"/><path class="cls-2" d="M8.55,45.5c0-.59,.02-1.18,.05-1.76h-2.51c-.03,.58-.05,1.17-.05,1.76s.02,1.18,.05,1.76h2.51c-.03-.58-.05-1.17-.05-1.76"/><path class="cls-2" d="M45.5,6.03C27.3,6.03,11.95,18.42,7.41,35.19h2.61C14.49,19.82,28.7,8.55,45.5,8.55c9.87,0,19.15,3.84,26.13,10.82,4.48,4.48,7.66,9.9,9.36,15.82h2.61c-1.77-6.59-5.24-12.64-10.2-17.6-7.45-7.45-17.37-11.56-27.91-11.56"/><path class="cls-2" d="M9.38,37.71h-2.57c-.23,1.16-.41,2.33-.54,3.52h2.53c.14-1.19,.33-2.37,.58-3.52"/><rect class="cls-2" x="82.45" y="49.77" width="2.51" height="3.52"/><path class="cls-2" d="M6.27,49.77c.13,1.19,.31,2.36,.54,3.52h2.57c-.25-1.15-.44-2.33-.58-3.52h-2.53Z"/><path class="cls-2" d="M82.2,41.23h2.53c-.13-1.18-.3-2.36-.53-3.52h-2.58c.25,1.16,.44,2.33,.58,3.52"/><path class="cls-2" d="M82.45,45.5v1.76h2.51v-1.76c0-.59-.02-1.17-.04-1.76h-2.51c.03,.58,.04,1.17,.04,1.76"/><path class="cls-2" d="M14.63,43.74h-2.52c-.03,.58-.05,1.17-.05,1.76s.02,1.18,.05,1.76h2.52c-.03-.58-.05-1.17-.05-1.76s.02-1.18,.05-1.76"/><path class="cls-2" d="M76.12,41.23h2.53c-.15-1.19-.36-2.36-.64-3.52h-2.59c.3,1.15,.53,2.33,.69,3.52"/><path class="cls-2" d="M78.89,43.74h-2.52c.03,.58,.05,1.17,.05,1.76v1.76h2.51v-1.76c0-.59-.02-1.17-.05-1.76"/><path class="cls-2" d="M45.5,14.58c8.26,0,16.02,3.22,21.86,9.06,3.32,3.32,5.79,7.26,7.3,11.56h2.65c-1.6-4.97-4.37-9.53-8.17-13.33-6.32-6.32-14.71-9.79-23.64-9.79-14.84,0-27.45,9.72-31.8,23.13h2.65c4.26-12,15.71-20.61,29.15-20.61"/><path class="cls-2" d="M12.35,49.77c.15,1.19,.37,2.37,.64,3.52h2.58c-.3-1.15-.53-2.32-.69-3.52h-2.53Z"/><rect class="cls-2" x="76.42" y="49.77" width="2.51" height="3.52"/><path class="cls-2" d="M14.88,41.23c.17-1.2,.39-2.37,.69-3.52h-2.58c-.28,1.15-.49,2.33-.64,3.52h2.53Z"/><path class="cls-2" d="M72.84,43.74h-2.52c.04,.58,.07,1.17,.07,1.76v1.76h2.51v-1.76c0-.59-.03-1.17-.06-1.76"/><path class="cls-2" d="M20.68,43.74h-2.52c-.04,.58-.06,1.17-.06,1.76s.02,1.18,.06,1.76h2.52c-.04-.58-.07-1.17-.07-1.76s.03-1.18,.07-1.76"/><rect class="cls-2" x="70.39" y="49.77" width="2.51" height="3.52"/><path class="cls-2" d="M19.24,37.71c-.34,1.14-.61,2.32-.8,3.52h2.55c.21-1.21,.51-2.38,.88-3.52h-2.64Z"/><path class="cls-2" d="M45.5,20.61c6.65,0,12.9,2.59,17.6,7.29,2.14,2.14,3.84,4.61,5.06,7.29h2.74c-1.36-3.35-3.39-6.43-6.02-9.07-5.17-5.17-12.06-8.02-19.38-8.02-11.46,0-21.3,7.08-25.38,17.09h2.74c3.93-8.59,12.6-14.58,22.64-14.58"/><path class="cls-2" d="M69.14,37.71c.38,1.15,.67,2.32,.88,3.52h2.55c-.19-1.19-.45-2.37-.79-3.52h-2.64Z"/><path class="cls-2" d="M18.43,49.77c.19,1.2,.45,2.37,.79,3.52h2.64c-.38-1.15-.67-2.32-.88-3.52h-2.55Z"/><path class="cls-1" d="M78.02,37.71h3.61c-.18-.85-.39-1.68-.63-2.51h-3.68c.27,.83,.5,1.67,.7,2.51"/><path class="cls-1" d="M12.99,37.71c.2-.85,.44-1.69,.71-2.51h-3.68c-.24,.83-.46,1.66-.64,2.51h3.61Z"/><path class="cls-1" d="M71.78,37.71h3.65c-.22-.85-.47-1.69-.77-2.51h-3.76c.33,.82,.63,1.66,.88,2.51"/><path class="cls-1" d="M20.12,35.19h-3.77c-.29,.82-.55,1.66-.78,2.51h3.66c.26-.86,.55-1.7,.88-2.51"/><path class="cls-1" d="M22.86,35.19c-.37,.82-.7,1.65-.99,2.51h47.27c-.28-.86-.61-1.7-.98-2.51H22.86Z"/><path class="cls-1" d="M7.41,35.19H3.77c-.2,.83-.38,1.67-.54,2.51h3.57c.17-.85,.37-1.69,.6-2.51"/><path class="cls-1" d="M83.6,35.19c.22,.83,.43,1.67,.6,2.51h3.56c-.16-.85-.33-1.69-.54-2.51h-3.62Z"/><path class="cls-1" d="M12.35,41.23h-3.55c-.1,.83-.17,1.67-.21,2.51h3.52c.04-.85,.13-1.68,.24-2.51"/><path class="cls-1" d="M6.27,41.23H2.73c-.08,.83-.14,1.67-.17,2.51h3.52c.04-.85,.1-1.68,.19-2.51"/><path class="cls-1" d="M84.92,43.74h3.52c-.03-.84-.09-1.68-.17-2.51h-3.54c.09,.83,.15,1.67,.19,2.51"/><path class="cls-1" d="M20.99,41.23c-.14,.83-.25,1.66-.31,2.51h49.64c-.06-.85-.16-1.69-.3-2.51H20.99Z"/><path class="cls-1" d="M72.57,41.23c.13,.83,.22,1.67,.27,2.51h3.53c-.05-.85-.13-1.68-.24-2.51h-3.56Z"/><path class="cls-1" d="M14.88,41.23c-.11,.83-.2,1.67-.25,2.51h3.53c.05-.85,.14-1.69,.27-2.51h-3.55Z"/><path class="cls-1" d="M78.89,43.74h3.52c-.04-.84-.11-1.68-.21-2.51h-3.54c.1,.83,.19,1.67,.23,2.51"/><path class="cls-1" d="M20.68,47.26c.06,.85,.16,1.69,.3,2.51h49.4v-2.51H20.68Z"/><rect class="cls-1" x="78.93" y="47.26" width="3.52" height="2.51"/><path class="cls-1" d="M14.63,47.26c.05,.85,.13,1.68,.25,2.51h3.55c-.13-.83-.22-1.67-.27-2.51h-3.53Z"/><path class="cls-1" d="M8.59,47.26c.04,.85,.11,1.68,.21,2.51h3.55c-.11-.83-.19-1.67-.24-2.51h-3.52Z"/><rect class="cls-1" x="72.9" y="47.26" width="3.52" height="2.51"/><path class="cls-1" d="M6.08,47.26H2.56c.03,.84,.09,1.68,.17,2.51h3.54c-.09-.83-.15-1.67-.19-2.51"/><rect class="cls-1" x="84.97" y="47.26" width="3.52" height="2.51"/><rect class="cls-1" x="78.93" y="53.29" width="3.52" height="2.51"/><path class="cls-1" d="M3.23,53.29c.16,.85,.33,1.68,.54,2.51h3.64c-.22-.83-.43-1.67-.6-2.51H3.23Z"/><rect class="cls-1" x="72.9" y="53.29" width="3.52" height="2.51"/><path class="cls-1" d="M9.38,53.29c.18,.85,.4,1.69,.64,2.51h3.68c-.27-.83-.5-1.66-.71-2.51h-3.61Z"/><rect class="cls-1" x="84.97" y="53.29" width="3.52" height="2.51"/><path class="cls-1" d="M15.58,53.29c.22,.85,.48,1.69,.78,2.51h3.75c-.33-.82-.63-1.66-.88-2.51h-3.65Z"/><path class="cls-1" d="M21.86,53.29c.28,.86,.61,1.7,.98,2.51h47.55v-2.51H21.86Z"/><path class="cls-3" d="M3.77,35.19H1.18c-.19,.83-.36,1.67-.51,2.51H3.23c.16-.85,.33-1.69,.54-2.51"/><path class="cls-3" d="M87.77,37.71h2.57c-.15-.85-.32-1.68-.51-2.51h-2.59c.2,.83,.38,1.67,.54,2.51"/><path class="cls-3" d="M81.63,37.71h2.58c-.17-.85-.37-1.68-.6-2.51h-2.61c.24,.83,.45,1.67,.63,2.51"/><path class="cls-3" d="M10.02,35.19h-2.61c-.22,.83-.43,1.67-.6,2.51h2.57c.18-.85,.4-1.69,.64-2.51"/><path class="cls-3" d="M16.35,35.19h-2.65c-.27,.82-.5,1.66-.71,2.51h2.58c.22-.85,.49-1.69,.78-2.51"/><path class="cls-3" d="M75.43,37.71h2.59c-.2-.85-.44-1.69-.71-2.51h-2.65c.29,.83,.54,1.66,.76,2.51"/><path class="cls-3" d="M69.14,37.71h2.64c-.25-.85-.55-1.69-.88-2.51h-2.74c.37,.82,.7,1.66,.98,2.51"/><path class="cls-3" d="M22.86,35.19h-2.74c-.33,.82-.63,1.66-.88,2.51h2.64c.28-.86,.61-1.7,.99-2.51"/><path class="cls-3" d="M88.44,43.74h2.52c-.03-.84-.09-1.68-.17-2.51h-2.52c.08,.83,.14,1.67,.17,2.51"/><path class="cls-3" d="M2.73,41.23H.2c-.08,.83-.13,1.67-.17,2.51H2.56c.03-.84,.09-1.68,.17-2.51"/><path class="cls-3" d="M82.41,43.74h2.51c-.04-.84-.1-1.68-.19-2.51h-2.53c.1,.83,.17,1.67,.21,2.51"/><path class="cls-3" d="M8.8,41.23h-2.53c-.09,.83-.15,1.67-.19,2.51h2.51c.04-.85,.11-1.68,.21-2.51"/><path class="cls-3" d="M76.37,43.74h2.52c-.04-.85-.13-1.68-.23-2.51h-2.53c.11,.83,.2,1.67,.24,2.51"/><path class="cls-3" d="M12.35,41.23c-.11,.83-.19,1.67-.24,2.51h2.52c.05-.85,.13-1.69,.25-2.51h-2.53Z"/><path class="cls-3" d="M70.02,41.23c.14,.83,.24,1.67,.3,2.51h2.52c-.05-.85-.14-1.68-.27-2.51h-2.55Z"/><path class="cls-3" d="M18.44,41.23c-.13,.83-.22,1.67-.27,2.51h2.52c.06-.85,.16-1.69,.31-2.51h-2.55Z"/><rect class="cls-3" x="88.49" y="47.26" width="2.51" height="2.51"/><path class="cls-3" d="M2.56,47.26H.04c.03,.84,.09,1.68,.17,2.51H2.73c-.08-.83-.14-1.67-.17-2.51"/><path class="cls-3" d="M6.08,47.26c.04,.85,.1,1.68,.19,2.51h2.53c-.1-.83-.17-1.67-.21-2.51h-2.51Z"/><rect class="cls-3" x="82.45" y="47.26" width="2.51" height="2.51"/><path class="cls-3" d="M12.11,47.26c.04,.85,.13,1.68,.24,2.51h2.53c-.12-.83-.2-1.67-.25-2.51h-2.52Z"/><rect class="cls-3" x="76.42" y="47.26" width="2.51" height="2.51"/><rect class="cls-3" x="70.39" y="47.26" width="2.51" height="2.51"/><path class="cls-3" d="M18.16,47.26c.05,.85,.14,1.68,.27,2.51h2.55c-.14-.83-.24-1.67-.3-2.51h-2.52Z"/><path class="cls-3" d="M.67,53.29c.15,.85,.32,1.68,.51,2.51H3.77c-.2-.83-.38-1.67-.54-2.51H.67Z"/><rect class="cls-3" x="88.49" y="53.29" width="2.51" height="2.51"/><path class="cls-3" d="M6.81,53.29c.17,.85,.37,1.69,.6,2.51h2.61c-.24-.83-.46-1.66-.64-2.51h-2.57Z"/><rect class="cls-3" x="82.45" y="53.29" width="2.51" height="2.51"/><rect class="cls-3" x="76.42" y="53.29" width="2.51" height="2.51"/><path class="cls-3" d="M12.99,53.29c.2,.85,.44,1.69,.71,2.51h2.65c-.29-.82-.55-1.66-.78-2.51h-2.58Z"/><path class="cls-3" d="M19.22,53.29c.25,.85,.55,1.69,.88,2.51h2.74c-.37-.82-.7-1.66-.98-2.51h-2.64Z"/><rect class="cls-3" x="70.39" y="53.29" width="2.51" height="2.51"/></g></g></svg>